<svg width="30" height="30" viewBox="0 0 30 30" fill="none" xmlns="http://www.w3.org/2000/svg">
<path d="M28.125 5.625C28.125 4.8457 27.498 4.21875 26.7188 4.21875H3.28125C2.50195 4.21875 1.875 4.8457 1.875 5.625C1.875 6.4043 2.50195 7.03125 3.28125 7.03125H26.7188C27.498 7.03125 28.125 6.4043 28.125 5.625ZM28.125 15C28.125 14.2207 27.498 13.5938 26.7188 13.5938H3.28125C2.50195 13.5938 1.875 14.2207 1.875 15C1.875 15.7793 2.50195 16.4062 3.28125 16.4062H26.7188C27.498 16.4062 28.125 15.7793 28.125 15ZM1.875 24.375C1.875 25.1543 2.50195 25.7812 3.28125 25.7812H26.7188C27.498 25.7812 28.125 25.1543 28.125 24.375C28.125 23.5957 27.498 22.9688 26.7188 22.9688H3.28125C2.50195 22.9688 1.875 23.5957 1.875 24.375Z" fill="#9E9E9E"/>
</svg>
