<svg width="20" height="20" viewBox="0 0 20 20" fill="none" xmlns="http://www.w3.org/2000/svg">
<g clip-path="url(#clip0_15_329)">
<path d="M14.3736 8.12639C14.3736 6.4685 13.7152 4.87852 12.5432 3.70622C11.3712 2.53391 9.78165 1.87532 8.12421 1.87532C6.46677 1.87532 4.87721 2.53391 3.70522 3.70622C2.53323 4.87852 1.87482 6.4685 1.87482 8.12639C1.87482 9.78428 2.53323 11.3743 3.70522 12.5466C4.87721 13.7189 6.46677 14.3775 8.12421 14.3775C9.78165 14.3775 11.3712 13.7189 12.5432 12.5466C13.7152 11.3743 14.3736 9.78428 14.3736 8.12639ZM13.1667 14.4986C11.784 15.5964 10.0303 16.2528 8.12421 16.2528C3.63636 16.2528 0 12.6154 0 8.12639C0 3.63734 3.63636 0 8.12421 0C12.612 0 16.2484 3.63734 16.2484 8.12639C16.2484 10.033 15.5922 11.7872 14.4947 13.1702L19.7246 18.4016C20.0918 18.7688 20.0918 19.3627 19.7246 19.726C19.3575 20.0894 18.7638 20.0933 18.4005 19.726L13.1667 14.4986Z" fill="#464C53"/>
</g>
<defs>
<clipPath id="clip0_15_329">
<rect width="20" height="20" fill="white"/>
</clipPath>
</defs>
</svg>
